<?xml version="1.0" encoding="utf-8"?>
<!-- Generator: Adobe Illustrator 21.1.0, SVG Export Plug-In . SVG Version: 6.00 Build 0)  -->
<svg version="1.1" id="Layer_1" xmlns="http://www.w3.org/2000/svg" xmlns:xlink="http://www.w3.org/1999/xlink" x="0px" y="0px"
	 viewBox="0 0 589.9 351.2" style="enable-background:new 0 0 589.9 351.2;" xml:space="preserve">
<style type="text/css">
	.st0{fill:#000002;}
	.st1{fill:#000098;}
	.st2{fill:#FFFFFF;}
	.st3{fill:#FB0102;}
</style>
<rect class="st0" width="589.9" height="351.2"/>
<polygon class="st1" points="0,206.7 249.2,351.2 123.8,351.2 0,280.4 "/>
<polygon class="st1" points="589.9,144.5 340.7,0 466,0 589.9,70.8 "/>
<polygon class="st1" points="589.9,218.2 589.9,290.4 87.1,0 212.4,0 "/>
<polygon class="st1" points="0,133 0,60.8 502.7,351.2 377.4,351.2 "/>
<polygon class="st2" points="502.7,351.2 0,60.8 0,0 87.1,0 589.9,290.4 589.9,351.2 "/>
<g>
	<path class="st3" d="M361.1,206.1c50.6,50.4,80.9-16.8,38.6-30.6c42.3-13.8,12.1-80.9-38.6-30.5H228.7
		c-50.6-50.4-80.9,16.8-38.6,30.6c-42.3,13.8-12.1,80.9,38.6,30.5H361.1z"/>
</g>
</svg>
